<?xml version="1.0" encoding="UTF-8" standalone="no"?>
<!-- Created with Inkscape (http://www.inkscape.org/) -->

<svg
   xmlns:dc="http://purl.org/dc/elements/1.1/"
   xmlns:cc="http://creativecommons.org/ns#"
   xmlns:rdf="http://www.w3.org/1999/02/22-rdf-syntax-ns#"
   xmlns:svg="http://www.w3.org/2000/svg"
   xmlns="http://www.w3.org/2000/svg"
   xmlns:sodipodi="http://sodipodi.sourceforge.net/DTD/sodipodi-0.dtd"
   xmlns:inkscape="http://www.inkscape.org/namespaces/inkscape"
   width="719.22864"
   height="259.60919"
   id="svg2"
   version="1.1"
   inkscape:version="0.48.2 r9819"
   sodipodi:docname="Code Story Logo.svg"
   inkscape:export-filename="/home/ericlemerdy/Téléchargements/Code Story Logo.png"
   inkscape:export-xdpi="77.839996"
   inkscape:export-ydpi="77.839996">
  <defs
     id="defs4" />
  <sodipodi:namedview
     id="base"
     pagecolor="#ffffff"
     bordercolor="#666666"
     borderopacity="1.0"
     inkscape:pageopacity="0.0"
     inkscape:pageshadow="2"
     inkscape:zoom="0.98994949"
     inkscape:cx="254.32009"
     inkscape:cy="-34.928266"
     inkscape:document-units="px"
     inkscape:current-layer="layer1"
     showgrid="false"
     inkscape:window-width="1440"
     inkscape:window-height="876"
     inkscape:window-x="0"
     inkscape:window-y="24"
     inkscape:window-maximized="1"
     fit-margin-top="0"
     fit-margin-left="0"
     fit-margin-right="0"
     fit-margin-bottom="0" />
  <metadata
     id="metadata7">
    <rdf:RDF>
      <cc:Work
         rdf:about="">
        <dc:format>image/svg+xml</dc:format>
        <dc:type
           rdf:resource="http://purl.org/dc/dcmitype/StillImage" />
        <dc:title></dc:title>
      </cc:Work>
    </rdf:RDF>
  </metadata>
  <g
     inkscape:label="Calque 1"
     inkscape:groupmode="layer"
     id="layer1"
     transform="translate(-15.152288,-10.894905)">
    <rect
       style="fill:#ffffff;fill-opacity:1;stroke:none"
       id="rect4028"
       width="346.42856"
       height="229.28572"
       x="36.42857"
       y="28.790752" />
    <path
       style="fill:#daeaff;fill-opacity:1;stroke:none"
       d="m 247.14286,56.647896 -52.85715,-4.285713 -88.57143,15.714285 -34.285709,52.857142 -7.142857,58.57143 57.142856,64.28572 97.14285,-12.85715 82.85715,17.14286 40,-14.28571 -8.57143,-65.71429 14.28571,-51.42858 -39.99999,-49.999993 z"
       id="path4030"
       inkscape:connector-curvature="0"
       sodipodi:nodetypes="ccccccccccccc" />
    <path
       style="fill:#2e3436;fill-opacity:1;stroke:none"
       d="m 160.63336,79.547837 109.64996,7.91322 -5.10443,31.860323 0.60237,39.22017 -106.69748,-6.25118 5.51768,-35.12698 z"
       id="rect3007"
       inkscape:connector-curvature="0"
       sodipodi:nodetypes="ccccccc" />
    <path
       style="fill:#eeeeec;fill-opacity:1;stroke:none"
       d="m 166.87709,84.872677 96.24414,4.76661 -5.81551,51.269863 2.53228,12.34675 -94.30035,-5.50522 4.2173,-41.93784 z"
       id="rect3007-9"
       inkscape:connector-curvature="0"
       sodipodi:nodetypes="ccccccc" />
    <path
       style="fill:#2e3436;fill-opacity:1;stroke:none"
       d="m 167.58668,159.36321 30.16619,5.02122 58.54018,-0.66494 11.12994,30.88767 -61.04241,0.0364 -52.89671,-5.63182 z"
       id="rect3009"
       inkscape:connector-curvature="0"
       sodipodi:nodetypes="ccccccc" />
    <path
       style="fill:#eeeeec;fill-opacity:1;stroke:none"
       d="m 240.76287,182.01182 18.1481,0.35487 3.15576,8.97867 -9.40004,-1.11361 -8.12545,0.88298 z"
       id="rect3009-8-8"
       inkscape:connector-curvature="0"
       sodipodi:nodetypes="cccccc" />
    <path
       style="fill:#fcaf3e;fill-opacity:1;stroke:none"
       d="m 98.016061,136.78074 -0.59795,-65.486963 51.650579,6.23867 -3.41232,16.09116 17.13687,19.960913 -11.48296,5.68275 1.09596,11.66411 -3.02185,29.76942 -48.32335,5.76867 z"
       id="rect3780"
       inkscape:connector-curvature="0"
       sodipodi:nodetypes="cccccccccc" />
    <path
       style="fill:#c17d11;fill-opacity:1;stroke:none"
       d="m 227.04205,145.12399 -5.79174,-34.96904 -4.06879,17.32128 -10.60745,4.84267 11.66161,17.37864 z"
       id="path3819"
       inkscape:connector-curvature="0"
       sodipodi:nodetypes="cccccc" />
    <path
       style="fill:#edd400;fill-opacity:1;stroke:none"
       d="m 88.592641,52.767747 9.03459,7.25927 2.384499,-10.23082 4.83049,12.77396 4.51842,-17.27751 12.35014,5.27666 8.6779,7.24175 11.79918,-12.62909 3.43866,11.99049 7.1716,-7.18961 3.88633,8.73986 8.42327,-3.55241 -12.49345,23.34305 -47.16926,-4.67398 3.34004,22.35768 -10.175799,47.385643 -21.79637,-40.78789 4.75711,-28.762863 z"
       id="rect3790"
       inkscape:connector-curvature="0"
       sodipodi:nodetypes="ccccccccccccccccccc" />
    <path
       style="fill:#eeeeec;fill-opacity:1;stroke:none"
       d="m 169.58831,163.35886 30.88093,4.07047 34.98837,0.66866 0.6084,14.7715 4.49843,7.3054 -38.1628,0.72445 -41.40317,-6.12722 z"
       id="rect3009-8"
       inkscape:connector-curvature="0"
       sodipodi:nodetypes="cccccccc" />
    <path
       style="fill:none;stroke:#2e3436;stroke-width:1.5;stroke-linecap:butt;stroke-linejoin:miter;stroke-miterlimit:4;stroke-opacity:1;stroke-dasharray:none"
       d="m 165.9478,166.83732 43.73101,6.98226 31.50224,-0.4757"
       id="path3841"
       inkscape:connector-curvature="0"
       sodipodi:nodetypes="ccc" />
    <path
       style="fill:none;stroke:#2e3436;stroke-width:1.5;stroke-linecap:butt;stroke-linejoin:miter;stroke-miterlimit:4;stroke-opacity:1;stroke-dasharray:none"
       d="m 163.51378,177.96928 35.87577,4.57376 39.74548,1.57259"
       id="path3843"
       inkscape:connector-curvature="0"
       sodipodi:nodetypes="ccc" />
    <path
       style="fill:none;stroke:#2e3436;stroke-width:1.5;stroke-linecap:butt;stroke-linejoin:miter;stroke-miterlimit:4;stroke-opacity:1;stroke-dasharray:none"
       d="m 179.24668,162.1014 -4.96287,16.80671 -5.8441,10.51644"
       id="path3847"
       inkscape:connector-curvature="0"
       sodipodi:nodetypes="ccc" />
    <path
       style="fill:none;stroke:#2e3436;stroke-width:1.5;stroke-linecap:butt;stroke-linejoin:miter;stroke-miterlimit:4;stroke-opacity:1;stroke-dasharray:none"
       d="m 189.38464,163.99888 -4.55654,16.43842 -2.91872,7.94763"
       id="path3849"
       inkscape:connector-curvature="0"
       sodipodi:nodetypes="ccc" />
    <path
       style="fill:#fcaf3e;fill-opacity:1;stroke:none"
       d="m 189.89253,189.76268 4.69385,-16.01972 -19.94648,-4.49531 -0.28598,20.38823 z"
       id="path3819-1"
       inkscape:connector-curvature="0"
       sodipodi:nodetypes="ccccc" />
    <path
       style="fill:#a40000;fill-opacity:1;stroke:none"
       d="m 82.276111,163.03426 15.99038,-3.41622 39.408029,2.11408 24.22916,9.96575 9.02669,28.22929 2.69209,-11.13136 17.83249,1.20264 -0.40502,31.49167 -27.935,2.62024 -7.11083,17.63463 -72.530549,-15.7194 -8.79822,-31.32006 -3.41686,-9.83807 z"
       id="rect3795"
       inkscape:connector-curvature="0"
       sodipodi:nodetypes="cccccccccccccc" />
    <path
       style="fill:none;stroke:#2e3436;stroke-width:1.5;stroke-linecap:butt;stroke-linejoin:miter;stroke-miterlimit:4;stroke-opacity:1;stroke-dasharray:none"
       d="m 197.6436,165.10164 -2.77568,16.84008 -2.55872,10.28953"
       id="path3851"
       inkscape:connector-curvature="0"
       sodipodi:nodetypes="ccc" />
    <path
       style="fill:none;stroke:#2e3436;stroke-width:1.5;stroke-linecap:butt;stroke-linejoin:miter;stroke-miterlimit:4;stroke-opacity:1;stroke-dasharray:none"
       d="m 206.48268,165.31356 -0.49169,16.66871 0.61149,11.78349"
       id="path3853"
       inkscape:connector-curvature="0"
       sodipodi:nodetypes="ccc" />
    <path
       style="fill:none;stroke:#2e3436;stroke-width:1.5;stroke-linecap:butt;stroke-linejoin:miter;stroke-miterlimit:4;stroke-opacity:1;stroke-dasharray:none"
       d="m 214.86109,193.99255 0.48285,-17.1135 0.50937,-12.50493"
       id="path3855"
       inkscape:connector-curvature="0"
       sodipodi:nodetypes="ccc" />
    <path
       style="fill:none;stroke:#2e3436;stroke-width:1.5;stroke-linecap:butt;stroke-linejoin:miter;stroke-miterlimit:4;stroke-opacity:1;stroke-dasharray:none"
       d="m 227.10271,164.59967 -2.18176,18.0594 2.632,10.94539"
       id="path3857"
       inkscape:connector-curvature="0"
       sodipodi:nodetypes="ccc" />
    <path
       style="fill:none;stroke:#2e3436;stroke-width:1.5;stroke-linecap:butt;stroke-linejoin:miter;stroke-miterlimit:4;stroke-opacity:1;stroke-dasharray:none"
       d="m 251.38048,181.26112 2.65345,9.62525"
       id="path3857-4"
       inkscape:connector-curvature="0"
       sodipodi:nodetypes="cc" />
    <path
       style="fill:none;stroke:#2e3436;stroke-width:1.5;stroke-linecap:butt;stroke-linejoin:miter;stroke-miterlimit:4;stroke-opacity:1;stroke-dasharray:none"
       d="m 242.34347,186.44909 13.51749,0.49467 6.09657,-1.30006"
       id="path3857-4-5"
       inkscape:connector-curvature="0"
       sodipodi:nodetypes="ccc" />
    <path
       style="fill:#4e9a06;fill-opacity:1;stroke:none"
       d="m 291.10542,165.79117 27.89367,-0.0605 8.66656,24.68541 -5.67922,45.54565 -57.16646,13.64098 4.62722,-53.76633 -29.64557,-12.00427 -27.25584,-34.7716 15.37611,-7.2903 21.95132,26.28692 27.00268,10.80176 z"
       id="rect3816"
       inkscape:connector-curvature="0"
       sodipodi:nodetypes="cccccccccccc" />
    <path
       style="fill:#c17d11;fill-opacity:1;stroke:none"
       d="m 287.31033,93.687417 44.83525,3.06662 -1.95563,44.224693 -8.13711,29.2196 -48.74332,-2.39373 3.31898,-14.75473 26.65171,-5.60952 -28.22596,-6.35871 1.8569,-7.86235 -9.29096,-7.39845 16.75898,-12.69307 z"
       id="rect3782"
       inkscape:connector-curvature="0"
       sodipodi:nodetypes="cccccccccccc" />
    <path
       sodipodi:type="arc"
       style="fill:#000000;fill-opacity:1;stroke:none"
       id="path3784"
       sodipodi:cx="443.45697"
       sodipodi:cy="591.7326"
       sodipodi:rx="9.0913725"
       sodipodi:ry="9.0913734"
       d="m 452.54834,591.7326 c 0,5.02103 -4.07034,9.09138 -9.09137,9.09138 -5.02103,0 -9.09137,-4.07035 -9.09137,-9.09138 0,-5.02102 4.07034,-9.09137 9.09137,-9.09137 5.02103,0 9.09137,4.07035 9.09137,9.09137 z"
       transform="matrix(0.85404322,0.04194124,-0.04194124,0.85404322,-59.552674,-400.79388)" />
    <path
       style="fill:#000000;fill-opacity:1;stroke:none"
       d="m 291.29214,95.357927 -21.22936,5.199723 18.37818,-13.588283 -16.02195,-3.01476 32.35886,-7.83368 33.61538,16.92131 -4.70655,52.305753 -14.33747,-8.14458 8.20997,-34.32236 z"
       id="rect3787"
       inkscape:connector-curvature="0"
       sodipodi:nodetypes="cccccccccc" />
    <path
       sodipodi:type="arc"
       style="fill:#204a87;fill-opacity:1;stroke:none"
       id="path3784-1"
       sodipodi:cx="443.45697"
       sodipodi:cy="591.7326"
       sodipodi:rx="9.0913725"
       sodipodi:ry="9.0913734"
       d="m 452.54834,591.7326 c 0,5.02103 -4.07034,9.09138 -9.09137,9.09138 -5.02103,0 -9.09137,-4.07035 -9.09137,-9.09138 0,-5.02102 4.07034,-9.09137 9.09137,-9.09137 5.02103,0 9.09137,4.07035 9.09137,9.09137 z"
       transform="matrix(0.7153215,0.03512875,-0.03512875,0.7153215,-160.94123,-337.13607)" />
    <path
       style="fill:none;stroke:#000000;stroke-width:4;stroke-linecap:round;stroke-linejoin:round;stroke-miterlimit:4;stroke-opacity:1;stroke-dasharray:none"
       d="m 148.15275,138.7468 c -10.57387,2.28393 -19.34635,-0.74942 -25.68651,-4.83717"
       id="path3953"
       inkscape:connector-curvature="0"
       sodipodi:nodetypes="cc" />
    <path
       style="fill:#8ae234;stroke:none"
       d="m 306.99986,169.78989 -15.57755,11.39249 -2.95401,-12.66013 z"
       id="path3955"
       inkscape:connector-curvature="0" />
    <rect
       style="fill:#2e3436;stroke:#2e3436;stroke-width:6.64123058;stroke-linecap:round;stroke-linejoin:round;stroke-miterlimit:4;stroke-dasharray:none"
       id="rect4008"
       width="340.42142"
       height="225.49644"
       x="381.04797"
       y="27.581455" />
    <text
       xml:space="preserve"
       style="font-size:106.93405914px;font-style:normal;font-weight:normal;line-height:125%;letter-spacing:0px;word-spacing:0px;fill:#eeeeec;fill-opacity:1;stroke:none;font-family:Sans"
       x="384.78137"
       y="128.25941"
       id="text3981"
       sodipodi:linespacing="125%"><tspan
         sodipodi:role="line"
         id="tspan3983"
         x="384.78137"
         y="128.25941"
         style="font-style:normal;font-variant:normal;font-weight:bold;font-stretch:normal;fill:#eeeeec;font-family:DejaVu Sans;-inkscape-font-specification:DejaVu Sans Bold">CODE</tspan></text>
    <text
       xml:space="preserve"
       style="font-size:86.82707214px;font-style:normal;font-weight:normal;line-height:125%;letter-spacing:0px;word-spacing:0px;fill:#eeeeec;fill-opacity:1;stroke:none;font-family:Sans"
       x="388.39154"
       y="225.3578"
       id="text3981-1"
       sodipodi:linespacing="125%"><tspan
         sodipodi:role="line"
         id="tspan3983-6"
         x="388.39154"
         y="225.3578"
         style="font-style:normal;font-variant:normal;font-weight:bold;font-stretch:normal;fill:#eeeeec;font-family:DejaVu Sans;-inkscape-font-specification:DejaVu Sans Bold">STORY</tspan></text>
    <rect
       style="fill:none;stroke:#2e3436;stroke-width:6.57769203;stroke-linecap:round;stroke-linejoin:round;stroke-miterlimit:4;stroke-dasharray:none"
       id="rect4006"
       width="690.94434"
       height="230.12175"
       x="34.565662"
       y="27.838749"
       rx="0"
       ry="0"
       inkscape:export-filename="C:\Users\Eric\Desktop\code story logo.png"
       inkscape:export-xdpi="77.839996"
       inkscape:export-ydpi="77.839996" />
  </g>
</svg>
